<svg width="20" height="20" viewBox="0 0 20 20" fill="none" xmlns="http://www.w3.org/2000/svg">
<path d="M14.0258 13.0335C14.5841 12.6668 15.3174 13.0668 15.3174 13.7335V14.8085C15.3174 15.8668 14.4924 17.0001 13.5008 17.3335L10.8424 18.2168C10.3758 18.3751 9.61742 18.3751 9.15909 18.2168L6.50075 17.3335C5.50075 17.0001 4.68408 15.8668 4.68408 14.8085V13.7251C4.68408 13.0668 5.41742 12.6668 5.96742 13.0251L7.68408 14.1418C8.34242 14.5835 9.17576 14.8001 10.0091 14.8001C10.8424 14.8001 11.6758 14.5835 12.3341 14.1418L14.0258 13.0335Z" fill="#3FA2F6"/>
<path d="M16.6497 5.38184L11.6581 2.10684C10.7581 1.51517 9.27475 1.51517 8.37475 2.10684L3.35811 5.38184C1.74977 6.4235 1.74977 8.78184 3.35811 9.83184L4.69144 10.6985L8.37475 13.0985C9.27475 13.6902 10.7581 13.6902 11.6581 13.0985L15.3164 10.6985L16.4581 9.94851V12.4985C16.4581 12.8402 16.7414 13.1235 17.0831 13.1235C17.4247 13.1235 17.7081 12.8402 17.7081 12.4985V8.39851C18.0414 7.3235 17.6997 6.0735 16.6497 5.38184Z" fill="#3FA2F6"/>
</svg>
