<svg width="20" height="20" viewBox="0 0 20 20" fill="none" xmlns="http://www.w3.org/2000/svg">
<path d="M7.18749 2.8125C7.18749 1.25918 8.44667 0 9.99999 0C11.5533 0 12.8125 1.25918 12.8125 2.8125C12.8125 4.36578 11.5533 5.625 9.99999 5.625C8.44667 5.625 7.18749 4.36578 7.18749 2.8125ZM17.1339 2.86613C16.6457 2.37797 15.8542 2.37797 15.3661 2.86613L11.9822 6.25H8.01773L4.63386 2.86613C4.14573 2.37797 3.35425 2.37797 2.86612 2.86613C2.37796 3.3543 2.37796 4.14574 2.86612 4.63391L6.56249 8.33023V18.75C6.56249 19.4404 7.12214 20 7.81249 20H8.43749C9.12784 20 9.68749 19.4404 9.68749 18.75V14.375H10.3125V18.75C10.3125 19.4404 10.8721 20 11.5625 20H12.1875C12.8778 20 13.4375 19.4404 13.4375 18.75V8.33023L17.1339 4.63387C17.622 4.1457 17.622 3.3543 17.1339 2.86613Z" fill="#3FA2F6"/>
</svg>
