<svg width="20" height="20" viewBox="0 0 20 20" fill="none" xmlns="http://www.w3.org/2000/svg">
<path d="M15.8505 9.93679C18.1071 9.93679 19.9364 8.89756 19.9364 7.61561C19.9364 6.33366 18.1071 5.29443 15.8505 5.29443C13.594 5.29443 11.7646 6.33366 11.7646 7.61561C11.7646 8.89756 13.594 9.93679 15.8505 9.93679Z" fill="#3FA2F6"/>
<path fill-rule="evenodd" clip-rule="evenodd" d="M15.9118 11.272C12.9895 11.272 11.8259 10.0473 11.8259 9.33789V12.3767C11.8259 13.6591 13.6553 14.6967 15.9118 14.6967C18.1706 14.6967 20 13.6591 20 12.3767V9.41083C20 10.1214 18.8353 11.272 15.9118 11.272Z" fill="#3FA2F6"/>
<path fill-rule="evenodd" clip-rule="evenodd" d="M15.9118 15.967C13.2977 15.967 11.8259 14.7893 11.8259 14.0799V17.0905C11.8259 18.3729 13.6553 19.4117 15.9118 19.4117C18.1706 19.4117 20 18.3729 20 17.0905V14.0435C20 14.7529 18.5271 15.967 15.9118 15.967Z" fill="#3FA2F6"/>
<path d="M5.80828 5.23073C8.36633 5.23073 10.44 4.19151 10.44 2.90956C10.44 1.62761 8.36633 0.588379 5.80828 0.588379C3.25023 0.588379 1.17651 1.62761 1.17651 2.90956C1.17651 4.19151 3.25023 5.23073 5.80828 5.23073Z" fill="#3FA2F6"/>
<path fill-rule="evenodd" clip-rule="evenodd" d="M5.95525 6.56595C2.64349 6.56595 1.32349 5.34125 1.32349 4.63184V7.67066C1.32349 8.95301 3.3976 9.99066 5.95525 9.99066C8.51525 9.99066 10.5882 8.95301 10.5882 7.67066V4.70478C10.5882 5.41537 9.26701 6.56595 5.95525 6.56595Z" fill="#3FA2F6"/>
<path fill-rule="evenodd" clip-rule="evenodd" d="M5.95525 11.2614C2.99172 11.2614 1.32349 10.0838 1.32349 9.37436V12.3849C1.32349 13.6673 3.3976 14.7061 5.95525 14.7061C8.51525 14.7061 10.5882 13.6673 10.5882 12.3849V9.33789C10.5882 10.0473 8.9176 11.2614 5.95525 11.2614Z" fill="#3FA2F6"/>
<path fill-rule="evenodd" clip-rule="evenodd" d="M5.95525 15.967C2.99172 15.967 1.32349 14.7893 1.32349 14.0799V17.0905C1.32349 18.3729 3.3976 19.4117 5.95525 19.4117C8.51525 19.4117 10.5882 18.3729 10.5882 17.0905V14.0435C10.5882 14.7529 8.9176 15.967 5.95525 15.967Z" fill="#3FA2F6"/>
</svg>
