<svg width="184" height="184" viewBox="0 0 184 184" fill="none" xmlns="http://www.w3.org/2000/svg">
<g clip-path="url(#clip0_229_1338)">
<path d="M117.785 2.47119C116.922 3.32656 116.381 4.32815 116.052 5.33705L116.477 5.49789C116.718 4.26967 117.215 3.26077 117.785 2.47119Z" fill="#74B13C"/>
<path d="M76.9092 183.444H183.114V167.353H99.8872C93.8412 174.576 85.9308 180.14 76.9092 183.444Z" fill="#74B13C"/>
<path d="M183.115 161.994V145.888H110.825C109.355 151.708 106.987 157.111 103.814 161.994H183.115Z" fill="#74B13C"/>
<path d="M112.556 132.539C112.556 134.878 112.351 137.174 112.066 139.426C141.259 139.404 173.119 139.36 174.157 139.36C176.051 139.36 176.212 132.89 176.212 132.89C178.624 112.01 168.301 92.541 168.301 92.541C165.194 85.6468 146.274 79.6811 146.274 79.6811C136.185 76.1427 136.104 72.5896 136.104 72.5896C116.255 111.71 101.188 72.6846 101.188 72.6846C100.084 76.9396 86.6682 81.7721 81.4629 83.5047C99.8278 92.2193 112.556 110.862 112.556 132.539Z" fill="#74B13C"/>
<path d="M96.1953 51.9364C97.7159 64.4965 108.536 77.5245 118.347 77.5245C129.635 77.5245 140.368 63.8385 142.049 51.9364C142.67 51.4758 143.709 50.3719 144.096 47.8935C144.096 47.8935 146.516 39.2667 143.321 40.1879C144.44 36.8541 148.132 23.8992 140.982 15.8573C140.982 15.8573 137.633 11.3026 129.482 8.86809C129.204 8.63414 128.911 8.37826 128.582 8.15162C128.582 8.15162 128.751 8.34902 129.014 8.73649C128.56 8.58296 128.071 8.48061 127.581 8.34902C127.142 7.89574 126.645 7.42053 126.082 6.90877C126.082 6.90877 126.572 7.42054 127.164 8.2686C126.937 8.21742 126.74 8.15893 126.521 8.11507C126.141 7.55213 125.695 6.98188 125.139 6.39701C125.139 6.39701 125.38 6.85029 125.68 7.55213C124.189 6.47012 121.169 3.89669 121.169 1.05277C121.169 1.05277 119.298 1.92276 118.194 3.53846C118.632 2.20788 119.356 0.965035 120.533 0C120.533 0 119.298 0.606802 118.143 1.99587C117.258 2.47839 115.233 3.88207 114.553 6.35315L113.91 6.01685C114.224 5.32231 114.677 4.59123 115.277 3.85283C115.277 3.85283 114.399 4.62047 113.624 5.87794L112.323 5.21996C112.711 4.49619 113.222 3.75048 113.91 3.01208C113.91 3.01208 113.215 3.56771 112.455 4.46694C112.674 3.61157 112.637 2.63191 110.006 5.54895C110.006 5.54895 98.1107 10.6739 94.6746 21.3477C94.6746 21.3477 92.6495 26.1729 95.3326 40.3633C91.5236 38.5575 94.119 47.8789 94.119 47.8789C94.4992 50.3719 95.5519 51.4685 96.1953 51.9364ZM117.784 2.47107C117.207 3.26065 116.717 4.26955 116.468 5.49778L116.044 5.33694C116.381 4.32804 116.922 3.32645 117.784 2.47107Z" fill="#74B13C"/>
<path d="M108.449 132.651C108.449 104.234 85.4122 81.1901 56.9876 81.1901C28.5629 81.1901 5.51904 104.234 5.51904 132.651C5.51904 161.091 28.5629 184.112 56.9876 184.112C85.4122 184.112 108.449 161.091 108.449 132.651ZM38.9005 162.516C37.6065 157.311 42.0442 151.711 48.836 150.022C51.8992 149.254 54.882 149.415 57.3824 150.292V92.7193C57.3824 92.7193 57.726 90.1897 61.0597 89.795C61.0597 89.795 61.0159 92.6681 78.4962 104.877C87.4666 111.786 87.43 121.239 87.43 121.239C75.7765 102.962 63.8744 103.605 63.8744 103.605L63.7209 158.276H63.7063C63.6697 162.882 59.5171 167.378 53.5515 168.855C46.7743 170.573 39.6681 167.349 38.9005 162.516Z" fill="#74B13C"/>
<path d="M38.9005 162.516C37.6065 157.311 42.0442 151.711 48.836 150.022C51.8992 149.254 54.882 149.415 57.3824 150.292V92.7193C57.3824 92.7193 57.726 90.1897 61.0597 89.795C61.0597 89.795 61.0159 92.6681 78.4962 104.877C87.4666 111.786 87.43 121.239 87.43 121.239C75.7765 102.962 63.8744 103.605 63.8744 103.605L63.7209 158.276H63.7063C63.6697 162.882 59.5171 167.378 53.5515 168.855C46.7743 170.573 39.6681 167.349 38.9005 162.516Z" fill="#74B13C"/>
<path d="M55.1594 109.177C55.7948 107.415 58.2868 107.415 58.9222 109.177L63.5087 121.897C63.7868 122.668 64.5071 123.191 65.3263 123.217L78.8402 123.649C80.7124 123.709 81.4825 126.079 80.003 127.227L69.3237 135.52C68.6763 136.023 68.4012 136.869 68.6295 137.657L72.395 150.642C72.9166 152.442 70.9006 153.906 69.3508 152.854L58.1641 145.26C57.486 144.8 56.5956 144.8 55.9175 145.26L44.7308 152.854C43.181 153.906 41.1649 152.442 41.6866 150.642L45.4521 137.657C45.6803 136.869 45.4052 136.023 44.7578 135.52L34.0786 127.227C32.5991 126.079 33.3692 123.709 35.2413 123.649L48.7552 123.217C49.5745 123.191 50.2948 122.668 50.5728 121.897L55.1594 109.177Z" fill="#F9F9F9"/>
</g>
<defs>
<clipPath id="clip0_229_1338">
<rect width="184" height="184" fill="white"/>
</clipPath>
</defs>
</svg>
