<svg width="50" height="50" viewBox="0 0 50 50" fill="none" xmlns="http://www.w3.org/2000/svg">
<rect width="50" height="50" rx="25" fill="#F0F8FF"/>
<rect width="30" height="30" transform="translate(10 10)" fill="#F0F8FF"/>
<path d="M10.335 24.9056C10.335 25.5083 10.8121 25.8724 11.4022 25.8724C11.7663 25.8724 12.0551 25.6966 12.3062 25.4455L24.5607 14.2834C24.6988 14.1453 24.8495 14.095 25.0127 14.095C25.1634 14.095 25.3015 14.1453 25.4521 14.2834L37.6942 25.4455C37.9577 25.6966 38.2465 25.8724 38.598 25.8724C39.1882 25.8724 39.6654 25.5083 39.6654 24.9056C39.6654 24.5289 39.5273 24.2904 39.2887 24.077L34.9443 20.1218V12.7014C34.9443 12.1489 34.5927 11.7974 34.0404 11.7974H32.3955C31.8556 11.7974 31.4789 12.1489 31.4789 12.7014V16.9703L26.5068 12.4252C26.0674 12.0108 25.5275 11.8099 25.0001 11.8099C24.4728 11.8099 23.9455 12.0108 23.4934 12.4252L10.7116 24.077C10.4857 24.2904 10.335 24.5289 10.335 24.9056ZM13.9259 35.4399C13.9259 37.1852 14.9806 38.2022 16.751 38.2022H21.836V29.275C21.836 28.6974 22.2253 28.3208 22.8029 28.3208H27.2351C27.8126 28.3208 28.1894 28.6974 28.1894 29.275V38.2022H33.2618C35.0322 38.2022 36.0744 37.1852 36.0744 35.4399V26.2491L25.4145 16.6439C25.2764 16.5183 25.1257 16.4556 24.9751 16.4556C24.8369 16.4556 24.6988 16.5183 24.5482 16.6565L13.9259 26.3118V35.4399Z" fill="#3FA2F6"/>
</svg>
