<svg width="50" height="50" viewBox="0 0 50 50" fill="none" xmlns="http://www.w3.org/2000/svg">
<rect width="50" height="50" rx="25" fill="#F0F8FF"/>
<path d="M35.5437 26.8471C37.4486 26.8471 38.9931 25.3036 38.9931 23.3987C38.9931 21.4938 37.4485 19.9492 35.5437 19.9492C33.6393 19.9492 32.0947 21.4938 32.0947 23.3987C32.0948 25.3036 33.6393 26.8471 35.5437 26.8471Z" fill="#3FA2F6"/>
<path d="M39.9603 30.171C39.8066 29.2474 39.0432 27.9549 38.4653 27.3774C38.3892 27.3009 38.049 27.2832 37.9571 27.3402C37.2546 27.7722 36.4294 28.0265 35.5436 28.0265C34.6589 28.0265 33.8337 27.7722 33.1311 27.3402C33.0388 27.2832 32.699 27.3009 32.6229 27.3774C32.4614 27.539 32.2851 27.754 32.1133 28.0034C32.5782 28.8788 32.947 29.8087 33.08 30.6094C33.213 31.4121 33.1698 32.1721 32.9547 32.8649C33.7187 33.1413 34.6348 33.2626 35.5436 33.2626C37.914 33.2626 40.3398 32.4407 39.9603 30.171Z" fill="#3FA2F6"/>
<path d="M24.9108 25.3919C27.9979 25.3919 30.5008 22.889 30.5008 19.8019C30.5008 16.7158 27.9979 14.2129 24.9108 14.2129C21.8242 14.2129 19.3223 16.7158 19.3223 19.8019C19.3223 22.889 21.8242 25.3919 24.9108 25.3919Z" fill="#3FA2F6"/>
<path d="M29.6445 26.2483C29.5232 26.1275 28.9724 26.0967 28.8226 26.1894C27.6831 26.8905 26.3458 27.3009 24.9112 27.3009C23.4776 27.3009 22.1397 26.8905 21.0008 26.1894C20.851 26.0966 20.3002 26.1275 20.1789 26.2483C19.2402 27.186 18.003 29.2824 17.7541 30.7769C17.1404 34.4581 21.0725 35.7871 24.9112 35.7871C28.7509 35.7871 32.683 34.4581 32.0693 30.7769C31.8204 29.2824 30.5832 27.186 29.6445 26.2483Z" fill="#3FA2F6"/>
<path d="M14.4563 26.8471C16.3607 26.8471 17.9052 25.3036 17.9052 23.3987C17.9052 21.4938 16.3607 19.9492 14.4563 19.9492C12.5514 19.9492 11.0068 21.4938 11.0068 23.3987C11.0068 25.3036 12.5514 26.8471 14.4563 26.8471Z" fill="#3FA2F6"/>
<path d="M16.7438 30.6094C16.8853 29.7684 17.2843 28.7782 17.7847 27.8625C17.6452 27.672 17.5058 27.5061 17.3771 27.3774C17.301 27.3009 16.9613 27.2832 16.869 27.3402C16.1664 27.7722 15.3411 28.0265 14.456 28.0265C13.5708 28.0265 12.745 27.7722 12.043 27.3402C11.9511 27.2832 11.6104 27.3009 11.5343 27.3774C10.955 27.9548 10.1936 29.2474 10.0393 30.171C9.66036 32.4407 12.0857 33.2625 14.456 33.2625C15.3019 33.2625 16.1562 33.1584 16.8853 32.9203C16.6555 32.2134 16.6069 31.4357 16.7438 30.6094Z" fill="#3FA2F6"/>
</svg>
