<svg width="20" height="20" viewBox="0 0 20 20" fill="none" xmlns="http://www.w3.org/2000/svg">
<path d="M5 18.3332H15C15.663 18.3332 16.2989 18.0698 16.7678 17.6009C17.2366 17.1321 17.5 16.4962 17.5 15.8332V5.83317C17.5 5.39114 17.3244 4.96722 17.0118 4.65466C16.6993 4.3421 16.2754 4.1665 15.8333 4.1665H14.1667V2.49984C14.1667 2.27882 14.0789 2.06686 13.9226 1.91058C13.7663 1.7543 13.5543 1.6665 13.3333 1.6665C13.1123 1.6665 12.9004 1.7543 12.7441 1.91058C12.5878 2.06686 12.5 2.27882 12.5 2.49984V4.1665H7.5V2.49984C7.5 2.27882 7.4122 2.06686 7.25592 1.91058C7.09964 1.7543 6.88768 1.6665 6.66667 1.6665C6.44565 1.6665 6.23369 1.7543 6.07741 1.91058C5.92113 2.06686 5.83333 2.27882 5.83333 2.49984V4.1665H4.16667C3.72464 4.1665 3.30072 4.3421 2.98816 4.65466C2.67559 4.96722 2.5 5.39114 2.5 5.83317V15.8332C2.5 16.4962 2.76339 17.1321 3.23223 17.6009C3.70107 18.0698 4.33696 18.3332 5 18.3332ZM4.16667 10.4165C4.16667 10.306 4.21057 10.2 4.28871 10.1219C4.36685 10.0437 4.47283 9.99984 4.58333 9.99984H15.4167C15.5272 9.99984 15.6332 10.0437 15.7113 10.1219C15.7894 10.2 15.8333 10.306 15.8333 10.4165V15.8332C15.8333 16.0542 15.7455 16.2661 15.5893 16.4224C15.433 16.5787 15.221 16.6665 15 16.6665H5C4.77899 16.6665 4.56702 16.5787 4.41074 16.4224C4.25446 16.2661 4.16667 16.0542 4.16667 15.8332V10.4165Z" fill="#3FA2F6"/>
</svg>
