<svg width="83" height="77" viewBox="0 0 83 77" fill="none" xmlns="http://www.w3.org/2000/svg">
<path d="M91.6464 -9.08372L64.3299 -2.08128L43.0753 -20.6142L41.9158 -21.6252L41.8187 -20.0899L40.0371 8.0535L15.8432 22.5408L14.5234 23.3311L15.9535 23.898L42.169 34.2891L48.4709 61.7757L48.8147 63.2751L49.7957 62.0902L67.7793 40.3689L95.868 42.8692L97.4003 43.0056L96.5765 41.7064L81.4755 17.8907L92.5333 -8.05059L93.1366 -9.46571L91.6464 -9.08372ZM88.1835 -5.21359L78.3788 17.7879L78.2223 18.1551L78.436 18.4922L91.8257 39.6089L66.9202 37.3919L66.5226 37.3566L66.2681 37.664L50.3225 56.9237L44.7347 32.5521L44.6455 32.1631L44.2745 32.016L21.0299 22.8024L42.482 9.95688L42.8244 9.75183L42.8496 9.35349L44.4293 -15.6005L63.2752 0.832096L63.576 1.09441L63.9626 0.995295L88.1835 -5.21359ZM65.4414 -8.29304L65.7423 -8.03073L66.1289 -8.12984L102.416 -17.4318L87.7267 17.0283L87.5702 17.3955L87.784 17.7326L107.844 49.369L70.5313 46.0476L70.1337 46.0122L69.8792 46.3197L45.99 75.174L37.6185 38.6612L37.5293 38.2722L37.1583 38.1251L2.33403 24.3216L34.4729 5.07684L34.8153 4.87178L34.8405 4.47345L37.2071 -32.9119L65.4414 -8.29304Z" fill="#FFE589" stroke="#FFE589" stroke-width="1.51841"/>
</svg>
