<svg width="157" height="157" viewBox="0 0 157 157" fill="none" xmlns="http://www.w3.org/2000/svg">
<g clip-path="url(#clip0_229_1322)">
<path d="M76.7129 118.013C73.1213 117.342 70.3449 114.745 68.0485 112.6C66.8345 111.471 65.1734 109.918 64.3167 109.692C64.2051 109.659 63.999 109.627 63.6396 109.627C62.5112 109.627 60.9182 109.993 59.3776 110.343C57.3529 110.807 55.2536 111.287 53.1105 111.287C51.0901 111.287 49.3063 110.843 47.7854 109.966C47.0782 109.553 46.1218 109.769 45.7776 110.512L32.3205 139.575C31.6958 140.924 32.7092 142.459 34.1952 142.415L49.2226 141.965C49.8519 141.946 50.4533 142.225 50.8459 142.717L60.2209 154.47C61.1482 155.632 62.9747 155.412 63.5994 154.063L78.4988 121.876L79.5322 119.649C79.8479 118.969 79.249 118.186 78.4988 118.186C77.8831 118.185 77.2848 118.127 76.7129 118.013Z" fill="#74B13C"/>
<path d="M109.221 109.96C107.7 110.843 105.907 111.287 103.896 111.287C103.896 111.287 103.896 111.287 103.889 111.287C101.744 111.287 99.6531 110.807 97.6286 110.343C96.0881 109.992 94.4951 109.627 93.3578 109.627C93.007 109.627 92.7945 109.659 92.6807 109.692C91.8261 109.918 90.165 111.471 88.9575 112.6C88.4832 113.042 87.9905 113.502 87.4772 113.96C87.2681 114.146 87.0979 114.373 86.9801 114.627L81.4514 126.566C81.2047 127.099 81.2046 127.714 81.4513 128.247L93.4009 154.063C94.0255 155.412 95.8516 155.633 96.7791 154.471L106.16 142.716C106.553 142.224 107.154 141.946 107.783 141.965L122.811 142.414C124.297 142.459 125.311 140.924 124.686 139.575L111.221 110.5C110.879 109.761 109.923 109.547 109.221 109.96Z" fill="#74B13C"/>
<path d="M78.5009 24.8973C60.9003 24.8973 46.6305 39.1672 46.6305 56.7677C46.6305 74.3683 60.9 88.6381 78.5009 88.6381C96.1011 88.6381 110.371 74.3683 110.371 56.7677C110.371 39.1672 96.1011 24.8973 78.5009 24.8973Z" fill="#74B13C"/>
<path d="M126.935 69.7491C128.117 65.3335 135.269 61.5557 135.269 56.7678C135.269 51.982 128.117 48.2042 126.935 43.7889C125.715 39.22 129.983 32.3742 127.672 28.3774C125.323 24.3212 117.241 24.6128 113.948 21.3192C110.654 18.032 110.948 9.94619 106.89 7.59518C102.895 5.28556 96.0468 9.554 91.4804 8.33357C87.0712 7.15699 83.2869 0 78.4987 0C73.7194 0 69.9352 7.15699 65.5195 8.33357C60.9573 9.554 54.1116 5.28556 50.1084 7.59518C46.0589 9.9465 46.3435 18.032 43.0566 21.3192C39.7654 24.6128 31.6772 24.3212 29.3326 28.3774C27.0165 32.3742 31.2914 39.22 30.071 43.7889C28.8876 48.2042 21.731 51.982 21.731 56.7678C21.731 61.5557 28.8876 65.3335 30.071 69.7491C31.2914 74.3177 27.0165 81.1635 29.3326 85.1605C31.6772 89.2168 39.7654 88.923 43.0566 92.2163C44.5708 93.7305 45.3227 96.2548 46.0914 98.764C46.7424 100.903 47.4063 103.032 48.5482 104.527C48.9864 105.106 49.4991 105.59 50.1084 105.941C54.1052 108.252 60.9573 103.984 65.5195 105.204C68.3419 105.956 70.9035 109.142 73.632 111.353C75.1726 112.6 76.7745 113.538 78.4987 113.538C80.2254 113.538 81.8252 112.6 83.3722 111.353C86.0498 109.188 88.5654 106.081 91.3132 105.257C91.366 105.238 91.4273 105.218 91.48 105.205C96.0465 103.984 102.894 108.253 106.889 105.941C107.5 105.59 108.02 105.1 108.458 104.521C110.941 101.26 111.153 95.0062 113.947 92.2166C117.241 88.923 125.322 89.2168 127.671 85.1608C129.983 81.1635 125.715 74.3177 126.935 69.7491ZM78.4987 94.6137C77.7625 94.6137 77.033 94.594 76.3096 94.548C67.2048 94.031 58.9654 90.2992 52.7115 84.4614C45.2874 77.55 40.6528 67.7047 40.6528 56.7678C40.6528 35.8671 57.5981 18.9219 78.4987 18.9219C99.4015 18.9219 116.345 35.8675 116.345 56.7678C116.345 77.6705 99.4015 94.6137 78.4987 94.6137Z" fill="#74B13C"/>
</g>
<defs>
<clipPath id="clip0_229_1322">
<rect width="157" height="157" fill="white"/>
</clipPath>
</defs>
</svg>
