<svg width="205" height="177" viewBox="0 0 205 177" fill="none" xmlns="http://www.w3.org/2000/svg">
<path d="M198.007 194.406V96.8006C198.007 91.7062 193.878 87.5763 188.784 87.5763H144.983V61.0196C144.983 58.5113 143.624 56.1995 141.435 54.9781L105.87 35.1444C105.674 35.0347 105.472 34.9386 105.268 34.8501V23.5316H124.42C125.947 23.5316 127.186 22.2923 127.186 20.7641V6.78565C127.186 5.25745 125.947 4.01815 124.42 4.01815H105.268V2.76751C105.268 1.2393 104.03 0 102.501 0C100.973 0 99.7344 1.2393 99.7344 2.76751V34.8501C99.5308 34.9392 99.3283 35.0353 99.1318 35.1444L63.5673 54.9786C61.376 56.1995 60.0179 58.5118 60.0179 61.0201V87.5763H16.2162C11.1219 87.5763 6.99301 91.7062 6.99301 96.8006V194.406C3.07423 196.179 0.34668 200.121 0.34668 204.7C0.34668 210.942 5.40541 216 11.6457 216H193.354C199.594 216 204.653 210.942 204.653 204.7C204.652 200.121 201.925 196.179 198.007 194.406ZM162.354 119.727C162.354 116.76 164.76 114.354 167.729 114.354H177.776C180.743 114.354 183.149 116.76 183.149 119.727V129.775C183.149 132.742 180.743 135.148 177.776 135.148H167.73C164.76 135.148 162.355 132.742 162.355 129.775V119.727H162.354ZM162.354 152.01C162.354 149.043 164.76 146.637 167.729 146.637H177.776C180.743 146.637 183.149 149.043 183.149 152.01V162.057C183.149 165.024 180.743 167.43 177.776 167.43H167.73C164.76 167.43 162.355 165.024 162.355 162.057V152.01H162.354ZM130.072 119.727C130.072 116.76 132.477 114.354 135.444 114.354H145.492C148.458 114.354 150.864 116.76 150.864 119.727V129.775C150.864 132.742 148.458 135.148 145.492 135.148H135.444C132.477 135.148 130.072 132.742 130.072 129.775V119.727ZM130.072 152.01C130.072 149.043 132.477 146.637 135.444 146.637H145.492C148.458 146.637 150.864 149.043 150.864 152.01V162.057C150.864 165.024 148.458 167.43 145.492 167.43H135.444C132.477 167.43 130.072 165.024 130.072 162.057V152.01ZM102.5 61.0412C110.905 61.0412 117.72 67.8549 117.72 76.2606C117.72 84.6662 110.906 91.4794 102.5 91.4794C94.0941 91.4794 87.2804 84.6657 87.2804 76.26C87.2804 67.8544 94.0941 61.0412 102.5 61.0412ZM87.2593 148.412C87.2593 145.444 89.6645 143.039 92.6339 143.039H112.366C115.334 143.039 117.739 145.444 117.739 148.412V190.742C117.739 191.711 117.48 192.619 117.031 193.404H87.971C87.5212 192.619 87.2609 191.711 87.2609 190.742L87.2593 148.412ZM54.134 119.727C54.134 116.76 56.5392 114.354 59.5065 114.354H69.5538C72.5211 114.354 74.9262 116.76 74.9262 119.727V129.775C74.9262 132.742 72.5211 135.148 69.5538 135.148H59.5065C56.5392 135.148 54.134 132.742 54.134 129.775V119.727ZM54.134 152.01C54.134 149.043 56.5392 146.637 59.5065 146.637H69.5538C72.5211 146.637 74.9262 149.043 74.9262 152.01V162.057C74.9262 165.024 72.5211 167.43 69.5538 167.43H59.5065C56.5392 167.43 54.134 165.024 54.134 162.057V152.01ZM21.849 119.727C21.849 116.76 24.2542 114.354 27.2231 114.354H37.2693C40.2376 114.354 42.6433 116.76 42.6433 119.727V129.775C42.6433 132.742 40.2376 135.148 37.2693 135.148H27.2236C24.2547 135.148 21.8495 132.742 21.8495 129.775L21.849 119.727ZM21.849 152.01C21.849 149.043 24.2542 146.637 27.2231 146.637H37.2693C40.2376 146.637 42.6433 149.043 42.6433 152.01V162.057C42.6433 165.024 40.2376 167.43 37.2693 167.43H27.2236C24.2547 167.43 21.8495 165.024 21.8495 162.057L21.849 152.01Z" fill="#74B13C"/>
</svg>
