<svg width="20" height="20" viewBox="0 0 20 20" fill="none" xmlns="http://www.w3.org/2000/svg">
<path fill-rule="evenodd" clip-rule="evenodd" d="M10 17.5C14.1422 17.5 17.5 14.1422 17.5 10C17.5 5.85787 14.1422 2.5 10 2.5C5.85787 2.5 2.5 5.85787 2.5 10C2.5 14.1422 5.85787 17.5 10 17.5ZM10.8333 5.41667C10.8333 4.95643 10.4602 4.58333 10 4.58333C9.53975 4.58333 9.16667 4.95643 9.16667 5.41667V9.79167C9.16667 10.367 9.633 10.8333 10.2083 10.8333H12.9167C13.3769 10.8333 13.75 10.4602 13.75 10C13.75 9.53975 13.3769 9.16667 12.9167 9.16667H10.8333V5.41667Z" fill="#3FA2F6"/>
</svg>
