<svg width="50" height="50" viewBox="0 0 50 50" fill="none" xmlns="http://www.w3.org/2000/svg">
<rect width="50" height="50" rx="25" fill="#F0F8FF"/>
<path d="M31.0389 29.5502C31.8764 29.0002 32.9764 29.6002 32.9764 30.6002V32.2127C32.9764 33.8002 31.7389 35.5002 30.2514 36.0002L26.2639 37.3252C25.5639 37.5627 24.4264 37.5627 23.7389 37.3252L19.7514 36.0002C18.2514 35.5002 17.0264 33.8002 17.0264 32.2127V30.5877C17.0264 29.6002 18.1264 29.0002 18.9514 29.5377L21.5264 31.2127C22.5139 31.8752 23.7639 32.2002 25.0139 32.2002C26.2639 32.2002 27.5139 31.8752 28.5014 31.2127L31.0389 29.5502Z" fill="#3FA2F6"/>
<path d="M34.9744 18.0732L27.4869 13.1607C26.1369 12.2732 23.9119 12.2732 22.5619 13.1607L15.0369 18.0732C12.6244 19.6357 12.6244 23.1733 15.0369 24.7483L17.0369 26.0483L22.5619 29.6483C23.9119 30.5358 26.1369 30.5358 27.4869 29.6483L32.9744 26.0483L34.6869 24.9233V28.7483C34.6869 29.2608 35.1119 29.6858 35.6244 29.6858C36.1369 29.6858 36.5619 29.2608 36.5619 28.7483V22.5983C37.0619 20.9857 36.5494 19.1107 34.9744 18.0732Z" fill="#3FA2F6"/>
</svg>
